<?xml version="1.0" encoding="UTF-8" ?>
<svg version="1.1" width="160" height="160" xmlns="http://www.w3.org/2000/svg" shape-rendering="crispEdges">
<rect x="70" y="5" width="20" height="5" fill="#313638" />
<rect x="65" y="10" width="5" height="5" fill="#313638" />
<rect x="70" y="10" width="20" height="5" fill="#C7DCD0" />
<rect x="90" y="10" width="5" height="5" fill="#313638" />
<rect x="60" y="15" width="5" height="50" fill="#313638" />
<rect x="65" y="15" width="10" height="5" fill="#C7DCD0" />
<rect x="75" y="15" width="20" height="75" fill="#FFFFFF" />
<rect x="95" y="15" width="5" height="50" fill="#313638" />
<rect x="30" y="20" width="30" height="5" fill="#323353" />
<rect x="65" y="20" width="5" height="25" fill="#C7DCD0" />
<rect x="70" y="20" width="5" height="130" fill="#FFFFFF" />
<rect x="100" y="20" width="30" height="5" fill="#323353" />
<rect x="25" y="25" width="5" height="5" fill="#323353" />
<rect x="30" y="25" width="30" height="5" fill="#4D65B4" />
<rect x="100" y="25" width="30" height="5" fill="#4D65B4" />
<rect x="130" y="25" width="5" height="5" fill="#323353" />
<rect x="20" y="30" width="5" height="30" fill="#323353" />
<rect x="25" y="30" width="5" height="30" fill="#4D65B4" />
<rect x="30" y="30" width="30" height="15" fill="#4D9BE6" />
<rect x="100" y="30" width="30" height="30" fill="#4D9BE6" />
<rect x="130" y="30" width="5" height="30" fill="#4D65B4" />
<rect x="135" y="30" width="5" height="30" fill="#323353" />
<rect x="30" y="45" width="10" height="15" fill="#4D9BE6" />
<rect x="40" y="45" width="5" height="5" fill="#4D65B4" />
<rect x="45" y="45" width="5" height="5" fill="#323353" />
<rect x="50" y="45" width="10" height="15" fill="#4D9BE6" />
<rect x="65" y="45" width="5" height="100" fill="#FFFFFF" />
<rect x="40" y="50" width="5" height="5" fill="#313638" />
<rect x="45" y="50" width="5" height="10" fill="#4D9BE6" />
<rect x="40" y="55" width="5" height="5" fill="#4D9BE6" />
<rect x="15" y="60" width="45" height="5" fill="#313638" />
<rect x="100" y="60" width="45" height="5" fill="#313638" />
<rect x="10" y="65" width="5" height="5" fill="#313638" />
<rect x="15" y="65" width="45" height="5" fill="#C7DCD0" />
<rect x="60" y="65" width="5" height="25" fill="#FFFFFF" />
<rect x="95" y="65" width="50" height="20" fill="#FFFFFF" />
<rect x="145" y="65" width="5" height="5" fill="#313638" />
<rect x="5" y="70" width="5" height="20" fill="#313638" />
<rect x="10" y="70" width="10" height="5" fill="#C7DCD0" />
<rect x="20" y="70" width="40" height="20" fill="#FFFFFF" />
<rect x="145" y="70" width="5" height="10" fill="#FFFFFF" />
<rect x="150" y="70" width="5" height="20" fill="#313638" />
<rect x="10" y="75" width="5" height="10" fill="#C7DCD0" />
<rect x="15" y="75" width="5" height="15" fill="#FFFFFF" />
<rect x="145" y="80" width="5" height="10" fill="#C7DCD0" />
<rect x="10" y="85" width="5" height="5" fill="#FFFFFF" />
<rect x="95" y="85" width="40" height="5" fill="#FFFFFF" />
<rect x="135" y="85" width="10" height="10" fill="#C7DCD0" />
<rect x="10" y="90" width="5" height="5" fill="#313638" />
<rect x="15" y="90" width="5" height="5" fill="#C7DCD0" />
<rect x="20" y="90" width="5" height="5" fill="#FFFFFF" />
<rect x="25" y="90" width="20" height="5" fill="#C7DCD0" />
<rect x="45" y="90" width="5" height="5" fill="#FFFFFF" />
<rect x="50" y="90" width="5" height="5" fill="#C7DCD0" />
<rect x="55" y="90" width="5" height="5" fill="#FFFFFF" />
<rect x="60" y="90" width="5" height="5" fill="#C7DCD0" />
<rect x="75" y="90" width="15" height="50" fill="#FFFFFF" />
<rect x="90" y="90" width="45" height="5" fill="#C7DCD0" />
<rect x="145" y="90" width="5" height="5" fill="#313638" />
<rect x="15" y="95" width="50" height="5" fill="#313638" />
<rect x="90" y="95" width="5" height="50" fill="#C7DCD0" />
<rect x="95" y="95" width="50" height="5" fill="#313638" />
<rect x="20" y="100" width="5" height="30" fill="#323353" />
<rect x="25" y="100" width="5" height="30" fill="#4D65B4" />
<rect x="30" y="100" width="30" height="30" fill="#4D9BE6" />
<rect x="60" y="100" width="5" height="45" fill="#313638" />
<rect x="95" y="100" width="5" height="45" fill="#313638" />
<rect x="100" y="100" width="30" height="5" fill="#4D9BE6" />
<rect x="130" y="100" width="5" height="30" fill="#4D65B4" />
<rect x="135" y="100" width="5" height="30" fill="#323353" />
<rect x="100" y="105" width="15" height="5" fill="#4D9BE6" />
<rect x="115" y="105" width="5" height="5" fill="#313638" />
<rect x="120" y="105" width="10" height="25" fill="#4D9BE6" />
<rect x="100" y="110" width="10" height="20" fill="#4D9BE6" />
<rect x="110" y="110" width="5" height="5" fill="#323353" />
<rect x="115" y="110" width="5" height="5" fill="#4D65B4" />
<rect x="110" y="115" width="10" height="15" fill="#4D9BE6" />
<rect x="25" y="130" width="5" height="5" fill="#323353" />
<rect x="30" y="130" width="30" height="5" fill="#4D65B4" />
<rect x="100" y="130" width="30" height="5" fill="#4D65B4" />
<rect x="130" y="130" width="5" height="5" fill="#323353" />
<rect x="30" y="135" width="30" height="5" fill="#323353" />
<rect x="100" y="135" width="30" height="5" fill="#323353" />
<rect x="75" y="140" width="10" height="5" fill="#FFFFFF" />
<rect x="85" y="140" width="5" height="10" fill="#C7DCD0" />
<rect x="65" y="145" width="5" height="5" fill="#313638" />
<rect x="75" y="145" width="10" height="5" fill="#C7DCD0" />
<rect x="90" y="145" width="5" height="5" fill="#313638" />
<rect x="70" y="150" width="20" height="5" fill="#313638" />
</svg>