<?xml version="1.0" encoding="UTF-8" ?>
<svg version="1.1" width="160" height="160" xmlns="http://www.w3.org/2000/svg" shape-rendering="crispEdges">
<rect x="15" y="5" width="130" height="5" fill="#002310" />
<rect x="10" y="10" width="5" height="5" fill="#002310" />
<rect x="15" y="10" width="5" height="5" fill="#005D0E" />
<rect x="20" y="10" width="10" height="80" fill="#09BF1A" />
<rect x="30" y="10" width="30" height="5" fill="#005D0E" />
<rect x="60" y="10" width="65" height="10" fill="#09BF1A" />
<rect x="125" y="10" width="10" height="5" fill="#005D0E" />
<rect x="135" y="10" width="10" height="135" fill="#09BF1A" />
<rect x="145" y="10" width="5" height="5" fill="#002310" />
<rect x="5" y="15" width="5" height="130" fill="#002310" />
<rect x="10" y="15" width="5" height="110" fill="#005D0E" />
<rect x="15" y="15" width="5" height="130" fill="#09BF1A" />
<rect x="30" y="15" width="30" height="45" fill="#09BF1A" />
<rect x="125" y="15" width="10" height="15" fill="#09BF1A" />
<rect x="145" y="15" width="5" height="130" fill="#005D0E" />
<rect x="150" y="15" width="5" height="130" fill="#002310" />
<rect x="60" y="20" width="35" height="5" fill="#09BF1A" />
<rect x="95" y="20" width="25" height="10" fill="#FFFFFF" />
<rect x="120" y="20" width="5" height="5" fill="#09BF1A" />
<rect x="60" y="25" width="30" height="5" fill="#09BF1A" />
<rect x="90" y="25" width="5" height="15" fill="#FFFFFF" />
<rect x="120" y="25" width="5" height="40" fill="#FFFFFF" />
<rect x="60" y="30" width="25" height="5" fill="#09BF1A" />
<rect x="85" y="30" width="5" height="15" fill="#FFFFFF" />
<rect x="95" y="30" width="5" height="5" fill="#FFFFFF" />
<rect x="100" y="30" width="5" height="5" fill="#808080" />
<rect x="105" y="30" width="15" height="5" fill="#FFFFFF" />
<rect x="125" y="30" width="5" height="30" fill="#FFFFFF" />
<rect x="130" y="30" width="5" height="5" fill="#09BF1A" />
<rect x="60" y="35" width="20" height="5" fill="#09BF1A" />
<rect x="80" y="35" width="5" height="15" fill="#FFFFFF" />
<rect x="95" y="35" width="5" height="5" fill="#808080" />
<rect x="100" y="35" width="15" height="25" fill="#09BF1A" />
<rect x="115" y="35" width="5" height="5" fill="#FFFFFF" />
<rect x="130" y="35" width="5" height="25" fill="#FFFFFF" />
<rect x="60" y="40" width="15" height="5" fill="#09BF1A" />
<rect x="75" y="40" width="5" height="10" fill="#FFFFFF" />
<rect x="90" y="40" width="5" height="5" fill="#808080" />
<rect x="95" y="40" width="5" height="35" fill="#09BF1A" />
<rect x="115" y="40" width="5" height="15" fill="#09BF1A" />
<rect x="60" y="45" width="10" height="10" fill="#09BF1A" />
<rect x="70" y="45" width="5" height="5" fill="#FFFFFF" />
<rect x="85" y="45" width="5" height="5" fill="#808080" />
<rect x="90" y="45" width="5" height="20" fill="#09BF1A" />
<rect x="70" y="50" width="10" height="5" fill="#09BF1A" />
<rect x="80" y="50" width="5" height="5" fill="#808080" />
<rect x="85" y="50" width="5" height="10" fill="#09BF1A" />
<rect x="60" y="55" width="5" height="5" fill="#09BF1A" />
<rect x="65" y="55" width="10" height="10" fill="#FFFFFF" />
<rect x="75" y="55" width="10" height="5" fill="#09BF1A" />
<rect x="115" y="55" width="5" height="15" fill="#FFFFFF" />
<rect x="30" y="60" width="25" height="5" fill="#09BF1A" />
<rect x="55" y="60" width="10" height="10" fill="#FFFFFF" />
<rect x="75" y="60" width="5" height="15" fill="#FFFFFF" />
<rect x="80" y="60" width="10" height="5" fill="#808080" />
<rect x="100" y="60" width="10" height="5" fill="#09BF1A" />
<rect x="110" y="60" width="5" height="15" fill="#FFFFFF" />
<rect x="125" y="60" width="5" height="5" fill="#808080" />
<rect x="130" y="60" width="5" height="90" fill="#09BF1A" />
<rect x="30" y="65" width="20" height="5" fill="#09BF1A" />
<rect x="50" y="65" width="5" height="15" fill="#FFFFFF" />
<rect x="65" y="65" width="5" height="5" fill="#808080" />
<rect x="70" y="65" width="5" height="5" fill="#FFFFFF" />
<rect x="80" y="65" width="5" height="10" fill="#FFFFFF" />
<rect x="85" y="65" width="10" height="5" fill="#808080" />
<rect x="100" y="65" width="5" height="5" fill="#09BF1A" />
<rect x="105" y="65" width="5" height="15" fill="#FFFFFF" />
<rect x="120" y="65" width="5" height="5" fill="#808080" />
<rect x="125" y="65" width="5" height="80" fill="#09BF1A" />
<rect x="30" y="70" width="15" height="5" fill="#09BF1A" />
<rect x="45" y="70" width="5" height="15" fill="#FFFFFF" />
<rect x="55" y="70" width="5" height="5" fill="#FFFFFF" />
<rect x="60" y="70" width="5" height="5" fill="#808080" />
<rect x="65" y="70" width="10" height="10" fill="#09BF1A" />
<rect x="85" y="70" width="5" height="5" fill="#FFFFFF" />
<rect x="90" y="70" width="5" height="10" fill="#09BF1A" />
<rect x="100" y="70" width="5" height="15" fill="#FFFFFF" />
<rect x="115" y="70" width="5" height="5" fill="#808080" />
<rect x="120" y="70" width="5" height="75" fill="#09BF1A" />
<rect x="30" y="75" width="10" height="5" fill="#09BF1A" />
<rect x="40" y="75" width="5" height="15" fill="#FFFFFF" />
<rect x="55" y="75" width="5" height="5" fill="#808080" />
<rect x="60" y="75" width="5" height="5" fill="#09BF1A" />
<rect x="75" y="75" width="15" height="5" fill="#09BF1A" />
<rect x="95" y="75" width="5" height="10" fill="#FFFFFF" />
<rect x="110" y="75" width="5" height="5" fill="#808080" />
<rect x="115" y="75" width="5" height="70" fill="#09BF1A" />
<rect x="30" y="80" width="5" height="5" fill="#09BF1A" />
<rect x="35" y="80" width="5" height="15" fill="#FFFFFF" />
<rect x="50" y="80" width="5" height="5" fill="#808080" />
<rect x="55" y="80" width="5" height="35" fill="#09BF1A" />
<rect x="60" y="80" width="35" height="5" fill="#FFFFFF" />
<rect x="105" y="80" width="5" height="5" fill="#808080" />
<rect x="110" y="80" width="5" height="65" fill="#09BF1A" />
<rect x="30" y="85" width="5" height="15" fill="#FFFFFF" />
<rect x="45" y="85" width="5" height="5" fill="#808080" />
<rect x="50" y="85" width="5" height="35" fill="#09BF1A" />
<rect x="60" y="85" width="5" height="25" fill="#09BF1A" />
<rect x="65" y="85" width="30" height="5" fill="#FFFFFF" />
<rect x="95" y="85" width="10" height="5" fill="#808080" />
<rect x="105" y="85" width="5" height="60" fill="#09BF1A" />
<rect x="20" y="90" width="5" height="5" fill="#09BF1A" />
<rect x="25" y="90" width="5" height="35" fill="#FFFFFF" />
<rect x="40" y="90" width="5" height="5" fill="#808080" />
<rect x="45" y="90" width="5" height="30" fill="#09BF1A" />
<rect x="65" y="90" width="5" height="15" fill="#09BF1A" />
<rect x="70" y="90" width="20" height="5" fill="#C5C5C5" />
<rect x="90" y="90" width="10" height="5" fill="#808080" />
<rect x="100" y="90" width="5" height="55" fill="#09BF1A" />
<rect x="20" y="95" width="5" height="25" fill="#FFFFFF" />
<rect x="35" y="95" width="5" height="5" fill="#808080" />
<rect x="40" y="95" width="5" height="25" fill="#09BF1A" />
<rect x="70" y="95" width="10" height="5" fill="#09BF1A" />
<rect x="80" y="95" width="10" height="5" fill="#808080" />
<rect x="90" y="95" width="10" height="50" fill="#09BF1A" />
<rect x="30" y="100" width="5" height="10" fill="#808080" />
<rect x="35" y="100" width="5" height="15" fill="#09BF1A" />
<rect x="70" y="100" width="10" height="10" fill="#FFFFFF" />
<rect x="80" y="100" width="10" height="5" fill="#09BF1A" />
<rect x="65" y="105" width="5" height="15" fill="#FFFFFF" />
<rect x="80" y="105" width="5" height="5" fill="#808080" />
<rect x="85" y="105" width="5" height="40" fill="#09BF1A" />
<rect x="30" y="110" width="5" height="20" fill="#FFFFFF" />
<rect x="60" y="110" width="5" height="15" fill="#FFFFFF" />
<rect x="70" y="110" width="5" height="5" fill="#FFFFFF" />
<rect x="75" y="110" width="5" height="5" fill="#808080" />
<rect x="80" y="110" width="5" height="35" fill="#09BF1A" />
<rect x="35" y="115" width="5" height="20" fill="#FFFFFF" />
<rect x="55" y="115" width="5" height="15" fill="#FFFFFF" />
<rect x="70" y="115" width="5" height="5" fill="#808080" />
<rect x="75" y="115" width="5" height="30" fill="#09BF1A" />
<rect x="20" y="120" width="5" height="25" fill="#09BF1A" />
<rect x="40" y="120" width="15" height="10" fill="#FFFFFF" />
<rect x="65" y="120" width="5" height="5" fill="#808080" />
<rect x="70" y="120" width="5" height="25" fill="#09BF1A" />
<rect x="10" y="125" width="5" height="5" fill="#09BF1A" />
<rect x="25" y="125" width="5" height="20" fill="#09BF1A" />
<rect x="60" y="125" width="5" height="5" fill="#808080" />
<rect x="65" y="125" width="5" height="20" fill="#09BF1A" />
<rect x="10" y="130" width="5" height="15" fill="#005D0E" />
<rect x="30" y="130" width="5" height="15" fill="#09BF1A" />
<rect x="40" y="130" width="10" height="5" fill="#FFFFFF" />
<rect x="50" y="130" width="10" height="5" fill="#808080" />
<rect x="60" y="130" width="5" height="15" fill="#09BF1A" />
<rect x="35" y="135" width="25" height="10" fill="#09BF1A" />
<rect x="10" y="145" width="5" height="5" fill="#002310" />
<rect x="15" y="145" width="115" height="5" fill="#005D0E" />
<rect x="135" y="145" width="5" height="5" fill="#005D0E" />
<rect x="140" y="145" width="5" height="5" fill="#09BF1A" />
<rect x="145" y="145" width="5" height="5" fill="#003A1A" />
<rect x="15" y="150" width="130" height="5" fill="#002310" />
</svg>