<?xml version="1.0" encoding="UTF-8" ?>
<svg version="1.1" width="160" height="160" xmlns="http://www.w3.org/2000/svg" shape-rendering="crispEdges">
<rect x="10" y="0" width="5" height="160" fill="#60211F" />
<rect x="85" y="0" width="5" height="5" fill="#9E502A" />
<rect x="15" y="5" width="135" height="5" fill="#60211F" />
<rect x="5" y="10" width="5" height="5" fill="#60211F" />
<rect x="15" y="10" width="135" height="5" fill="#9E502A" />
<rect x="150" y="10" width="5" height="150" fill="#60211F" />
<rect x="5" y="15" width="5" height="145" fill="#340B1A" />
<rect x="15" y="15" width="10" height="5" fill="#60211F" />
<rect x="25" y="15" width="25" height="10" fill="#9E502A" />
<rect x="50" y="15" width="5" height="5" fill="#EF9F4A" />
<rect x="55" y="15" width="5" height="5" fill="#9E502A" />
<rect x="60" y="15" width="5" height="5" fill="#EF9F4A" />
<rect x="65" y="15" width="5" height="15" fill="#9E502A" />
<rect x="70" y="15" width="5" height="5" fill="#EF9F4A" />
<rect x="75" y="15" width="5" height="5" fill="#9E502A" />
<rect x="80" y="15" width="30" height="5" fill="#EF9F4A" />
<rect x="110" y="15" width="5" height="10" fill="#9E502A" />
<rect x="115" y="15" width="5" height="10" fill="#EF9F4A" />
<rect x="120" y="15" width="30" height="5" fill="#9E502A" />
<rect x="15" y="20" width="5" height="5" fill="#60211F" />
<rect x="20" y="20" width="5" height="55" fill="#9E502A" />
<rect x="50" y="20" width="5" height="15" fill="#9E502A" />
<rect x="55" y="20" width="5" height="10" fill="#EF9F4A" />
<rect x="60" y="20" width="5" height="5" fill="#9E502A" />
<rect x="70" y="20" width="5" height="5" fill="#9E502A" />
<rect x="75" y="20" width="5" height="10" fill="#EF9F4A" />
<rect x="80" y="20" width="5" height="5" fill="#9E502A" />
<rect x="85" y="20" width="10" height="5" fill="#EF9F4A" />
<rect x="95" y="20" width="15" height="5" fill="#9E502A" />
<rect x="120" y="20" width="10" height="5" fill="#9E502A" />
<rect x="130" y="20" width="10" height="5" fill="#EF9F4A" />
<rect x="140" y="20" width="10" height="15" fill="#9E502A" />
<rect x="15" y="25" width="5" height="105" fill="#9E502A" />
<rect x="25" y="25" width="10" height="15" fill="#9E502A" />
<rect x="35" y="25" width="5" height="20" fill="#EF9F4A" />
<rect x="40" y="25" width="10" height="5" fill="#9E502A" />
<rect x="60" y="25" width="5" height="15" fill="#EF9F4A" />
<rect x="70" y="25" width="5" height="10" fill="#EF9F4A" />
<rect x="80" y="25" width="5" height="5" fill="#F8B25C" />
<rect x="85" y="25" width="10" height="5" fill="#9E502A" />
<rect x="95" y="25" width="5" height="5" fill="#EF9F4A" />
<rect x="100" y="25" width="5" height="5" fill="#9E502A" />
<rect x="105" y="25" width="10" height="15" fill="#EF9F4A" />
<rect x="115" y="25" width="5" height="5" fill="#9E502A" />
<rect x="120" y="25" width="5" height="5" fill="#EF9F4A" />
<rect x="125" y="25" width="10" height="5" fill="#9E502A" />
<rect x="135" y="25" width="5" height="5" fill="#EF9F4A" />
<rect x="40" y="30" width="10" height="5" fill="#EF9F4A" />
<rect x="55" y="30" width="5" height="5" fill="#F8B25C" />
<rect x="65" y="30" width="5" height="5" fill="#EF9F4A" />
<rect x="75" y="30" width="5" height="5" fill="#F8B25C" />
<rect x="80" y="30" width="10" height="5" fill="#EF9F4A" />
<rect x="90" y="30" width="10" height="10" fill="#F8B25C" />
<rect x="100" y="30" width="5" height="5" fill="#EF9F4A" />
<rect x="115" y="30" width="5" height="50" fill="#EF9F4A" />
<rect x="120" y="30" width="5" height="5" fill="#9E502A" />
<rect x="125" y="30" width="5" height="5" fill="#EF9F4A" />
<rect x="130" y="30" width="10" height="5" fill="#9E502A" />
<rect x="40" y="35" width="5" height="5" fill="#EF9F4A" />
<rect x="45" y="35" width="5" height="5" fill="#F8B25C" />
<rect x="50" y="35" width="10" height="5" fill="#EF9F4A" />
<rect x="65" y="35" width="10" height="125" fill="#F8B25C" />
<rect x="75" y="35" width="5" height="5" fill="#EF9F4A" />
<rect x="80" y="35" width="10" height="125" fill="#F8B25C" />
<rect x="100" y="35" width="5" height="5" fill="#F8B25C" />
<rect x="120" y="35" width="5" height="15" fill="#EF9F4A" />
<rect x="125" y="35" width="5" height="5" fill="#9E502A" />
<rect x="130" y="35" width="15" height="5" fill="#EF9F4A" />
<rect x="145" y="35" width="5" height="125" fill="#9E502A" />
<rect x="25" y="40" width="5" height="5" fill="#9E502A" />
<rect x="30" y="40" width="5" height="10" fill="#EF9F4A" />
<rect x="40" y="40" width="5" height="10" fill="#F8B25C" />
<rect x="45" y="40" width="5" height="5" fill="#EF9F4A" />
<rect x="50" y="40" width="15" height="5" fill="#F8B25C" />
<rect x="75" y="40" width="5" height="120" fill="#F8B25C" />
<rect x="90" y="40" width="5" height="120" fill="#F8B25C" />
<rect x="95" y="40" width="10" height="5" fill="#EF9F4A" />
<rect x="105" y="40" width="5" height="120" fill="#F8B25C" />
<rect x="110" y="40" width="5" height="15" fill="#EF9F4A" />
<rect x="125" y="40" width="10" height="10" fill="#EF9F4A" />
<rect x="135" y="40" width="10" height="5" fill="#9E502A" />
<rect x="25" y="45" width="5" height="5" fill="#EF9F4A" />
<rect x="35" y="45" width="5" height="15" fill="#F8B25C" />
<rect x="45" y="45" width="5" height="115" fill="#F8B25C" />
<rect x="50" y="45" width="5" height="5" fill="#EF9F4A" />
<rect x="55" y="45" width="10" height="115" fill="#F8B25C" />
<rect x="95" y="45" width="10" height="115" fill="#F8B25C" />
<rect x="135" y="45" width="5" height="15" fill="#EF9F4A" />
<rect x="140" y="45" width="5" height="60" fill="#9E502A" />
<rect x="25" y="50" width="10" height="5" fill="#9E502A" />
<rect x="40" y="50" width="5" height="5" fill="#EF9F4A" />
<rect x="50" y="50" width="5" height="30" fill="#F8B25C" />
<rect x="120" y="50" width="5" height="5" fill="#F8B25C" />
<rect x="125" y="50" width="5" height="50" fill="#EF9F4A" />
<rect x="130" y="50" width="5" height="5" fill="#9E502A" />
<rect x="25" y="55" width="5" height="20" fill="#9E502A" />
<rect x="30" y="55" width="5" height="15" fill="#EF9F4A" />
<rect x="40" y="55" width="5" height="10" fill="#F8B25C" />
<rect x="110" y="55" width="5" height="5" fill="#F8B25C" />
<rect x="120" y="55" width="5" height="35" fill="#EF9F4A" />
<rect x="130" y="55" width="5" height="5" fill="#EF9F4A" />
<rect x="35" y="60" width="5" height="5" fill="#9E502A" />
<rect x="110" y="60" width="5" height="10" fill="#EF9F4A" />
<rect x="130" y="60" width="10" height="5" fill="#9E502A" />
<rect x="35" y="65" width="10" height="5" fill="#EF9F4A" />
<rect x="130" y="65" width="5" height="5" fill="#9E502A" />
<rect x="135" y="65" width="5" height="5" fill="#EF9F4A" />
<rect x="30" y="70" width="5" height="10" fill="#9E502A" />
<rect x="35" y="70" width="5" height="5" fill="#F8B25C" />
<rect x="40" y="70" width="5" height="5" fill="#EF9F4A" />
<rect x="110" y="70" width="5" height="45" fill="#F8B25C" />
<rect x="130" y="70" width="5" height="5" fill="#EF9F4A" />
<rect x="135" y="70" width="5" height="15" fill="#9E502A" />
<rect x="20" y="75" width="10" height="10" fill="#EF9F4A" />
<rect x="35" y="75" width="5" height="5" fill="#EF9F4A" />
<rect x="40" y="75" width="5" height="10" fill="#F8B25C" />
<rect x="130" y="75" width="5" height="5" fill="#9E502A" />
<rect x="30" y="80" width="5" height="5" fill="#EF9F4A" />
<rect x="35" y="80" width="5" height="45" fill="#F8B25C" />
<rect x="50" y="80" width="5" height="5" fill="#EF9F4A" />
<rect x="115" y="80" width="5" height="30" fill="#F8B25C" />
<rect x="130" y="80" width="5" height="5" fill="#EF9F4A" />
<rect x="20" y="85" width="5" height="10" fill="#9E502A" />
<rect x="25" y="85" width="5" height="5" fill="#EF9F4A" />
<rect x="30" y="85" width="5" height="5" fill="#F8B25C" />
<rect x="40" y="85" width="5" height="10" fill="#EF9F4A" />
<rect x="50" y="85" width="5" height="75" fill="#F8B25C" />
<rect x="130" y="85" width="5" height="10" fill="#9E502A" />
<rect x="135" y="85" width="5" height="10" fill="#EF9F4A" />
<rect x="25" y="90" width="5" height="20" fill="#9E502A" />
<rect x="30" y="90" width="5" height="10" fill="#EF9F4A" />
<rect x="120" y="90" width="5" height="10" fill="#F8B25C" />
<rect x="20" y="95" width="5" height="10" fill="#EF9F4A" />
<rect x="40" y="95" width="5" height="40" fill="#F8B25C" />
<rect x="130" y="95" width="5" height="25" fill="#EF9F4A" />
<rect x="135" y="95" width="5" height="15" fill="#9E502A" />
<rect x="30" y="100" width="5" height="45" fill="#F8B25C" />
<rect x="120" y="100" width="5" height="20" fill="#EF9F4A" />
<rect x="125" y="100" width="5" height="5" fill="#F8B25C" />
<rect x="20" y="105" width="5" height="10" fill="#9E502A" />
<rect x="125" y="105" width="5" height="40" fill="#EF9F4A" />
<rect x="140" y="105" width="5" height="5" fill="#EF9F4A" />
<rect x="25" y="110" width="5" height="5" fill="#EF9F4A" />
<rect x="115" y="110" width="5" height="5" fill="#EF9F4A" />
<rect x="135" y="110" width="5" height="15" fill="#EF9F4A" />
<rect x="140" y="110" width="5" height="5" fill="#9E502A" />
<rect x="20" y="115" width="5" height="10" fill="#EF9F4A" />
<rect x="25" y="115" width="5" height="35" fill="#9E502A" />
<rect x="110" y="115" width="5" height="5" fill="#EF9F4A" />
<rect x="115" y="115" width="5" height="45" fill="#F8B25C" />
<rect x="140" y="115" width="5" height="5" fill="#EF9F4A" />
<rect x="110" y="120" width="5" height="30" fill="#F8B25C" />
<rect x="120" y="120" width="5" height="5" fill="#F8B25C" />
<rect x="130" y="120" width="5" height="35" fill="#9E502A" />
<rect x="140" y="120" width="5" height="15" fill="#9E502A" />
<rect x="20" y="125" width="5" height="5" fill="#F8B25C" />
<rect x="35" y="125" width="5" height="5" fill="#EF9F4A" />
<rect x="120" y="125" width="5" height="5" fill="#EF9F4A" />
<rect x="135" y="125" width="5" height="5" fill="#9E502A" />
<rect x="15" y="130" width="10" height="5" fill="#EF9F4A" />
<rect x="35" y="130" width="5" height="10" fill="#F8B25C" />
<rect x="120" y="130" width="5" height="10" fill="#F8B25C" />
<rect x="135" y="130" width="5" height="5" fill="#EF9F4A" />
<rect x="15" y="135" width="10" height="5" fill="#9E502A" />
<rect x="40" y="135" width="5" height="5" fill="#EF9F4A" />
<rect x="135" y="135" width="5" height="20" fill="#9E502A" />
<rect x="140" y="135" width="5" height="5" fill="#EF9F4A" />
<rect x="15" y="140" width="5" height="20" fill="#9E502A" />
<rect x="20" y="140" width="5" height="5" fill="#EF9F4A" />
<rect x="35" y="140" width="5" height="5" fill="#EF9F4A" />
<rect x="40" y="140" width="5" height="20" fill="#F8B25C" />
<rect x="120" y="140" width="5" height="15" fill="#EF9F4A" />
<rect x="140" y="140" width="5" height="20" fill="#9E502A" />
<rect x="20" y="145" width="5" height="10" fill="#9E502A" />
<rect x="30" y="145" width="5" height="5" fill="#9E502A" />
<rect x="35" y="145" width="5" height="15" fill="#F8B25C" />
<rect x="125" y="145" width="5" height="5" fill="#9E502A" />
<rect x="25" y="150" width="10" height="10" fill="#EF9F4A" />
<rect x="110" y="150" width="5" height="5" fill="#EF9F4A" />
<rect x="125" y="150" width="5" height="10" fill="#EF9F4A" />
<rect x="20" y="155" width="5" height="5" fill="#EF9F4A" />
<rect x="110" y="155" width="5" height="5" fill="#F8B25C" />
<rect x="120" y="155" width="5" height="5" fill="#F8B25C" />
<rect x="130" y="155" width="10" height="5" fill="#EF9F4A" />
</svg>